<svg width="102" height="72" viewBox="0 0 102 72" fill="none" xmlns="http://www.w3.org/2000/svg">
<path d="M101.58 47.4085C100.446 40.382 95.8339 34.4827 82.1749 28.9787C77.4304 26.8122 72.1406 25.2607 70.564 21.6887C70.0041 19.6101 69.9304 18.439 70.2841 17.1801C71.3008 13.096 76.2074 11.8224 80.0973 12.9935C82.6022 13.8279 84.9745 15.7457 86.4037 18.805C93.0933 14.5014 93.0785 14.5305 97.7494 11.5737C96.0402 8.93882 95.1266 7.72368 94.0068 6.59667C89.9843 2.13195 84.503 -0.166293 75.7359 0.00936852C74.2182 0.199668 72.686 0.40446 71.1682 0.594906C66.7921 1.69279 62.6221 3.97639 60.1761 7.03582C52.8383 15.3065 54.9306 29.7838 63.8598 35.7418C72.6564 42.2998 85.5786 43.7929 87.2289 49.9264C88.835 57.4359 81.6741 59.8658 74.5571 59.0022C69.3116 57.919 66.3943 55.2694 63.2409 50.4534C57.4357 53.791 57.4357 53.791 51.4681 57.2017C52.8827 60.2758 54.3707 61.6664 56.7431 64.3306C67.9709 75.6461 96.0696 75.0899 101.109 57.9629C101.315 57.3772 102.671 53.4541 101.58 47.4085ZM43.526 0.916805H29.0272C29.0272 13.3595 28.9684 25.7143 28.9684 38.157C28.9684 46.0764 29.381 53.337 28.0843 55.5621C25.9625 59.9388 20.4665 59.3973 17.9616 58.5481C15.4125 57.3039 14.1159 55.5326 12.613 53.0296C12.2004 52.3123 11.891 51.7561 11.7877 51.7122C7.85369 54.0982 3.93414 56.4988 0 58.885C1.95985 62.8813 4.84769 66.3506 8.54607 68.6048C14.0716 71.8984 21.4978 72.9084 29.2631 71.1372C34.3171 69.6734 38.6783 66.6433 40.9622 62.0322C44.2628 55.9866 43.5555 48.6674 43.526 40.5723C43.5997 27.3684 43.526 14.1646 43.526 0.916805Z" fill="white"/>
</svg>
