<svg width="128" height="126" viewBox="0 0 128 126" fill="none" xmlns="http://www.w3.org/2000/svg">
<g clip-path="url(#clip0_57_59)">
<path d="M118 96.9999C111 96.9999 105.5 97.4999 101 99.4999C99.4999 99.9999 97.4999 99.9999 97.4999 101.5L98.9999 104.5C99.9999 106 101.5 108.5 103.5 110L109 114L119.5 119L125 123.5L128 125.5L126.5 122.5L124 120C121.5 116.5 118.5 113.5 115 111C112 109.5 106 106.5 105 103.5H104.5L110.5 102L119.5 100.5L123.5 99.4999V98.4999L119 93.4999C115 89.4999 110 85.9999 105 82.4999L95.9999 78.4999C94.9999 77.9999 92.9999 77.4999 92.4999 76.4999L88.9999 69.9999L81.4999 54.9999L77.4999 44.9999C68.4999 29.9999 58.5 20.9999 43.5 12.4999C40.5 10.4999 36.5 9.9999 32.5 8.9999L26 8.4999L22 5.4999C17 2.4999 3.99995 -4.5001 0.49995 4.4999C-2.00005 9.9999 3.99995 15.4999 5.99995 18.4999L10.5 24.9999L12 29.4999C13.5 33.4999 14.5 37.9999 16.5 41.4999L19.5 46.4999C20.5 47.4999 21.5 47.9999 22 49.4999C20.5 51.4999 20.5 53.9999 20 55.9999C16.5 65.9999 18 77.9999 22.5 85.4999C23.5 87.4999 27 92.4999 31.5 90.4999C35.5 88.9999 34.5 83.9999 35.5 79.4999L36 77.4999L40 84.4999C42.5 88.9999 47 93.4999 51 96.4999C53 97.9999 55 100.5 57.5 101.5L55.5 99.4999L51 94.4999C47 89.4999 44 83.9999 41 78.4999L37.5 69.9999L36 66.9999C34.5 68.9999 32.5 70.4999 31.5 72.9999C30 76.4999 30 81.4999 29.5 85.9999H29C26 85.4999 25 82.4999 24 79.9999C21.5 73.9999 21 63.9999 23.5 56.9999C24 54.9999 26.5 49.4999 25.5 47.4999C25 45.9999 23.5 44.9999 22.5 43.9999L19 37.9999L14 22.9999L9.49995 16.4999C7.99995 13.9999 5.99995 12.4999 4.49995 9.4999C3.99995 8.4999 3.49995 6.9999 4.49995 5.9999L5.49995 4.9999C6.49995 3.9999 9.99995 4.9999 11 5.4999C14 6.9999 17 7.9999 19.5 9.9999L23.5 12.9999H25.5C28.5 13.4999 31.5 12.9999 34 13.9999C38.5 15.4999 43 17.4999 46.5 19.9999C58 26.9999 67.4999 37.4999 73.4999 49.4999C74.9999 51.4999 74.9999 53.4999 75.9999 55.4999L81.9999 68.4999C83.9999 72.4999 85.4999 76.4999 87.9999 79.9999C89.4999 81.9999 94.9999 82.9999 96.9999 83.9999L103 85.9999L112 91.9999C113 92.9999 117.5 95.4999 118 96.9999Z" fill="white"/>
<path d="M29 21.5L25.5 22L28.5 25.5L30.5 30V29.5C32 29 32.5 27.5 32.5 25.5L31.5 23.5L29 21.5Z" fill="white"/>
</g>
<defs>
<clipPath id="clip0_57_59">
<rect width="128" height="126" fill="white"/>
</clipPath>
</defs>
</svg>
