<svg width="86" height="98" viewBox="0 0 86 98" fill="none" xmlns="http://www.w3.org/2000/svg">
<g clip-path="url(#clip0_57_49)">
<path d="M45.3257 0.614689C43.8664 -0.205222 42.1336 -0.205222 40.6743 0.614689L2.28001 22.755C0.820695 23.5749 0 25.1238 0 26.7636V71.1347C0 72.7749 0.91207 74.3238 2.28001 75.1437L40.6743 97.2836C42.1336 98.1039 43.8664 98.1039 45.3257 97.2836L83.72 75.1437C85.1793 74.3238 86 72.7749 86 71.1347V26.7636C86 25.1238 85.0879 23.5749 83.72 22.755L45.3257 0.614689Z" fill="#D9D9D9"/>
<mask id="mask0_57_49" style="mask-type:luminance" maskUnits="userSpaceOnUse" x="0" y="-1" width="86" height="99">
<path d="M45.3257 0.614689C43.8664 -0.205222 42.1336 -0.205222 40.6743 0.614689L2.28001 22.755C0.820695 23.5749 0 25.1238 0 26.7636V71.1347C0 72.7749 0.91207 74.3238 2.28001 75.1437L40.6743 97.2836C42.1336 98.1039 43.8664 98.1039 45.3257 97.2836L83.72 75.1437C85.1793 74.3238 86 72.7749 86 71.1347V26.7636C86 25.1238 85.0879 23.5749 83.72 22.755L45.3257 0.614689Z" fill="white"/>
</mask>
<g mask="url(#mask0_57_49)">
<path d="M83.8115 22.7547L45.2341 0.615099C44.8693 0.433195 44.4134 0.250956 44.0486 0.159668L0.820801 74.1416C1.18563 74.597 1.64183 74.9615 2.09736 75.2351L40.6744 97.375C41.7689 98.0127 43.0458 98.1949 44.2313 97.8304L84.8142 23.6659C84.5405 23.3014 84.176 23.0282 83.8111 22.755L83.8115 22.7547Z" fill="#ECECEC"/>
</g>
<mask id="mask1_57_49" style="mask-type:luminance" maskUnits="userSpaceOnUse" x="0" y="-1" width="86" height="99">
<path d="M45.3257 0.614689C43.8664 -0.205222 42.1336 -0.205222 40.6743 0.614689L2.28001 22.755C0.820695 23.5749 0 25.1238 0 26.7636V71.1347C0 72.7749 0.91207 74.3238 2.28001 75.1437L40.6743 97.2836C42.1336 98.1039 43.8664 98.1039 45.3257 97.2836L83.72 75.1437C85.1793 74.3238 86 72.7749 86 71.1347V26.7636C86 25.1238 85.0879 23.5749 83.72 22.755L45.3257 0.614689Z" fill="white"/>
</mask>
<g mask="url(#mask1_57_49)">
<path d="M83.9025 75.1439C84.997 74.5063 85.8177 73.4128 86.1825 72.2284L43.8665 0.0685482C42.772 -0.113691 41.5865 -0.0227394 40.5834 0.614932L2.27979 22.6643L43.593 97.9222C44.1399 97.8309 44.7786 97.6487 45.3258 97.3752L83.9025 75.1443V75.1439Z" fill="white"/>
</g>
</g>
<defs>
<clipPath id="clip0_57_49">
<rect width="86" height="98" fill="white"/>
</clipPath>
</defs>
</svg>
