<svg width="130" height="68" viewBox="0 0 130 68" fill="none" xmlns="http://www.w3.org/2000/svg">
<path d="M10.2872 13.8425H29.5668C35.2256 13.8904 39.3261 15.5341 41.8684 18.7708C44.4107 22.0075 45.2495 26.4284 44.3862 32.0335C44.051 34.5947 43.3071 37.1067 42.1561 39.5708C41.0375 42.0574 39.4771 44.3171 37.552 46.2385C35.1536 48.7504 32.5883 50.3449 29.8546 51.0217C27.076 51.7038 24.2257 52.0445 21.3658 52.0364H12.7332L9.99949 65.8065H0L10.2872 13.8425ZM18.7041 22.1046L14.3878 43.8468C14.6755 43.8947 14.9633 43.9193 15.251 43.9193H16.2582C20.8622 43.9671 24.6994 43.5091 27.7684 42.5423C30.8373 41.5276 32.9004 38.001 33.9551 31.9611C34.8184 26.8879 33.9551 23.9643 31.3653 23.1917C28.823 22.4191 25.6346 22.0567 21.7974 22.1046C21.2219 22.1525 20.6709 22.1771 20.1429 22.1771H18.6321L18.7041 22.1046ZM55.777 0H65.7045L62.8989 13.8425H71.8193C76.7112 13.9396 80.3556 14.9543 82.754 16.8865C85.1999 18.8186 85.9193 22.4916 84.9122 27.9025L80.0923 52.0364H70.0209L74.6249 28.9896C75.1041 26.5734 74.9602 24.8586 74.1933 23.844C73.4264 22.8293 71.7718 22.322 69.2295 22.322L61.2443 22.2495L55.3453 52.0364H45.4178L55.777 0ZM95.5727 13.8425H114.852C120.511 13.8904 124.612 15.5341 127.154 18.7708C129.696 22.0075 130.535 26.4284 129.672 32.0335C129.336 34.5947 128.593 37.1067 127.442 39.5708C126.323 42.0574 124.763 44.3171 122.837 46.2385C120.439 48.7504 117.874 50.3449 115.14 51.0217C112.361 51.7038 109.511 52.0445 106.651 52.0364H98.0186L95.2849 65.8065H85.2854L95.5727 13.8425ZM103.99 22.1046L99.6732 43.8468C99.9609 43.8947 100.249 43.9193 100.536 43.9193H101.544C106.148 43.9671 109.985 43.5091 113.054 42.5423C116.123 41.5276 118.186 38.001 119.241 31.9611C120.104 26.8879 119.241 23.9643 116.651 23.1917C114.108 22.4191 110.92 22.0567 107.083 22.1046C106.507 22.1525 105.956 22.1771 105.428 22.1771H103.918L103.99 22.1046Z" fill="white"/>
</svg>
