<svg width="96" height="116" viewBox="0 0 96 116" fill="none" xmlns="http://www.w3.org/2000/svg">
<g clip-path="url(#clip0_57_45)">
<path d="M95.3674 88.1295L55.5 3.64781C55.0046 2.60831 54.2368 1.72179 53.2778 1.08205C52.3189 0.442313 51.2044 0.0731543 50.0524 0.0136409C48.8982 -0.0635391 47.7449 0.176538 46.718 0.707763C45.691 1.23899 44.8296 2.04102 44.2275 3.02665L0.98742 72.9107C0.329933 73.9659 -0.0124715 75.1862 0.000347169 76.4287C0.0131658 77.6711 0.380676 78.8842 1.0598 79.9257L22.2 112.593C22.9998 113.819 24.1755 114.755 25.5516 115.26C26.9278 115.765 28.4307 115.813 29.8362 115.395L91.1858 97.2875C92.1095 97.018 92.9646 96.5538 93.693 95.9262C94.4215 95.2986 95.0064 94.5222 95.4083 93.6496C95.8045 92.7815 96.0064 91.8377 95.9999 90.8839C95.9933 89.93 95.7785 88.9891 95.3704 88.1265L95.3674 88.1295ZM86.4417 91.7528L34.383 107.113C32.7949 107.585 31.2705 106.211 31.6009 104.612L50.2002 15.747C50.5478 14.0844 52.8488 13.821 53.5763 15.3597L88.0065 88.3173C88.1588 88.6424 88.2385 88.9966 88.2403 89.3554C88.242 89.7142 88.1658 90.0691 88.0168 90.3956C87.8678 90.7222 87.6495 91.0126 87.3772 91.2468C87.1048 91.4811 86.7847 91.6536 86.439 91.7524L86.4417 91.7528Z" fill="white"/>
</g>
<defs>
<clipPath id="clip0_57_45">
<rect width="96" height="116" fill="white"/>
</clipPath>
</defs>
</svg>
