<svg width="96" height="84" viewBox="0 0 96 84" fill="none" xmlns="http://www.w3.org/2000/svg">
<g clip-path="url(#clip0_57_14)">
<path d="M48.1687 32.9766C43.0904 32.9766 38.9736 36.9798 38.9736 41.918C38.9736 46.8562 43.0904 50.8594 48.1687 50.8594C53.247 50.8594 57.3638 46.8562 57.3638 41.918C57.3638 36.9798 53.247 32.9766 48.1687 32.9766Z" fill="white"/>
<path d="M95.9932 41.9991C95.9932 34.9794 89.3083 28.8227 78.6646 24.771C78.8068 23.8586 78.9355 22.956 79.0269 22.0699C80.0768 11.9834 77.5775 4.70345 71.9932 1.56748C65.7452 -1.94072 56.92 0.605604 47.9966 7.54953C39.0732 0.605604 30.2481 -1.94072 24 1.56748C18.4157 4.70345 15.9165 11.9834 16.9663 22.0699C17.0577 22.956 17.183 23.8618 17.3286 24.7776C16.4414 25.107 15.571 25.4562 14.7346 25.8218C5.23211 29.9757 0 35.7271 0 41.9991C0 49.0188 6.68492 55.1754 17.3286 59.2271C17.183 60.1396 17.0577 61.0422 16.9663 61.9283C15.9165 72.0148 18.4157 79.2947 24 82.4307C25.9199 83.4894 28.0955 84.0306 30.3022 83.9987C35.5919 83.9987 41.7689 81.2909 47.9966 76.4486C54.221 81.2909 60.4013 83.9987 65.6978 83.9987C67.9044 84.0302 70.0799 83.4889 72 82.4307C77.5843 79.2947 80.0835 72.0148 79.0337 61.9283C78.9423 61.0422 78.8136 60.1396 78.6714 59.2271C89.3151 55.182 96 49.0155 96 41.9991M65.6571 4.44651C67.076 4.41322 68.4785 4.74745 69.7209 5.41497C73.5984 7.59236 75.3391 13.4987 74.4925 21.6186C74.4349 22.172 74.3672 22.732 74.2859 23.2953C69.8601 21.9988 65.3282 21.0742 60.7399 20.5315C57.9585 16.9352 54.8655 13.5772 51.4948 10.4944C56.7879 6.51519 61.7559 4.44651 65.6537 4.44651M63.8352 50.8931C62.1224 53.7847 60.2574 56.5884 58.2475 59.293C54.8406 59.6334 51.418 59.8028 47.9932 59.8003C44.5696 59.8026 41.1481 59.6333 37.7423 59.293C35.7378 56.5883 33.8784 53.7846 32.1716 50.8931C30.4589 48.0095 28.9024 45.0408 27.5084 41.9991C28.9024 38.9574 30.4589 35.9887 32.1716 33.105C33.8757 30.2251 35.7294 27.4314 37.7254 24.7348C41.1374 24.3859 44.5659 24.2122 47.9966 24.2143C51.4203 24.2123 54.8417 24.3816 58.2475 24.7216C60.2504 27.4224 62.1108 30.2205 63.8216 33.105C65.533 35.9894 67.0895 38.958 68.4848 41.9991C67.0895 45.0401 65.533 48.0088 63.8216 50.8931M70.8147 47.599C71.8895 50.4498 72.7719 53.3658 73.4562 56.3283C70.4865 57.2289 67.4593 57.9386 64.394 58.453C65.5589 56.7445 66.6877 54.9668 67.7804 53.1199C68.8607 51.295 69.8733 49.4536 70.8283 47.6122M41.5657 64.0464C43.6721 64.1716 45.8225 64.244 48 64.244C50.1775 64.244 52.3415 64.1716 54.4512 64.0464C52.4509 66.377 50.2958 68.5777 48 70.6346C45.7091 68.5781 43.5597 66.3772 41.5657 64.0464ZM31.6027 58.4464C28.5363 57.9343 25.5079 57.2268 22.537 56.3283C23.2186 53.3705 24.0976 50.4589 25.1683 47.6122C26.1098 49.4536 27.1189 51.295 28.2162 53.1199C29.3134 54.9448 30.4479 56.7434 31.6027 58.453M25.1683 36.3827C24.1014 33.5465 23.2247 30.646 22.5438 27.6995C25.5073 26.8 28.5276 26.0881 31.5857 25.5682C30.4275 27.2712 29.2931 29.0369 28.1992 30.8782C27.1054 32.7196 26.1064 34.538 25.1514 36.3827M54.4309 19.9485C52.3245 19.8233 50.1741 19.7508 47.9797 19.7508C45.8033 19.7508 43.6585 19.8167 41.5454 19.9485C43.5394 17.6176 45.6888 15.4168 47.9797 13.3603C50.2764 15.4163 52.4315 17.6171 54.4309 19.9485ZM67.7737 30.8782C66.6764 29.0292 65.542 27.2504 64.3703 25.5418C67.4437 26.0562 70.4789 26.7671 73.4562 27.6698C72.7731 30.6273 71.8941 33.5388 70.8249 36.386C69.8834 34.5446 68.8709 32.7032 67.7771 30.8815M21.5143 21.6219C20.6575 13.5052 22.4084 7.59565 26.2825 5.41826C27.5253 4.75178 28.9275 4.41762 30.3463 4.4498C34.2441 4.4498 39.2121 6.51849 44.5051 10.4977C41.1322 13.5827 38.037 16.9429 35.2533 20.5414C30.6663 21.0866 26.1349 22.0079 21.7074 23.2953C21.6295 22.732 21.5583 22.1753 21.5042 21.6219M16.6107 29.8768C17.1322 29.6572 17.6639 29.4376 18.2057 29.218C19.271 33.5894 20.7154 37.8651 22.5235 41.9991C20.712 46.1412 19.2664 50.4258 18.2023 54.8065C9.57359 51.3642 4.57175 46.5943 4.57175 41.9991C4.57175 37.6443 8.97418 33.2269 16.6107 29.8768ZM26.2825 78.5799C22.4084 76.4025 20.6575 70.4929 21.5143 62.3763C21.5685 61.8229 21.6396 61.2662 21.7175 60.6996C26.1433 61.9957 30.6752 62.9203 35.2634 63.4633C38.0457 67.061 41.1387 70.4211 44.5085 73.507C37.1294 79.0509 30.3869 80.8792 26.2926 78.5799M74.4891 62.3763C75.3357 70.4962 73.595 76.4025 69.7175 78.5799C65.6266 80.8857 58.8808 79.0509 51.505 73.507C54.8738 70.421 57.9656 67.0609 60.7467 63.4633C65.335 62.9207 69.8669 61.996 74.2926 60.6996C74.3739 61.2662 74.4417 61.8229 74.4992 62.3763M77.8112 54.7999C76.7442 50.4217 75.2975 46.1395 73.4867 41.9991C75.2967 37.8565 76.7423 33.572 77.8078 29.1917C86.4196 32.634 91.435 37.4038 91.435 41.9991C91.435 46.5943 86.4332 51.3642 77.8044 54.8065" fill="white"/>
</g>
<defs>
<clipPath id="clip0_57_14">
<rect width="96" height="84" fill="white"/>
</clipPath>
</defs>
</svg>
