<svg width="133" height="81" viewBox="0 0 133 81" fill="none" xmlns="http://www.w3.org/2000/svg">
<mask id="mask0_57_33" style="mask-type:luminance" maskUnits="userSpaceOnUse" x="0" y="0" width="133" height="80">
<path d="M0 0H133V79.5273H0V0Z" fill="white"/>
</mask>
<g mask="url(#mask0_57_33)">
<path fill-rule="evenodd" clip-rule="evenodd" d="M66.5 0C48.7667 0 37.6833 8.83636 33.25 26.5091C39.9 17.6727 47.6583 14.3591 56.525 16.5682C61.5839 17.8274 65.1996 21.4871 69.2019 25.5346C75.7213 32.13 83.2678 39.7636 99.75 39.7636C117.483 39.7636 128.567 30.9273 133 13.2545C126.35 22.0909 118.592 25.4045 109.725 23.1955C104.666 21.9363 101.05 18.2765 97.0481 14.229C90.5287 7.63364 82.9821 0 66.5 0ZM33.25 39.7636C15.5167 39.7636 4.43333 48.6 0 66.2727C6.65 57.4364 14.4083 54.1227 23.275 56.3318C28.3339 57.5935 31.9496 61.2507 35.9519 65.2983C42.4713 71.8936 50.0179 79.5273 66.5 79.5273C84.2333 79.5273 95.3167 70.6909 99.75 53.0182C93.1 61.8545 85.3417 65.1682 76.475 62.9591C71.4161 61.6999 67.8004 58.0402 63.7981 53.9926C57.2787 47.3973 49.7321 39.7636 33.25 39.7636Z" fill="white"/>
</g>
</svg>
