<svg width="100" height="66" viewBox="0 0 100 66" fill="none" xmlns="http://www.w3.org/2000/svg">
<path d="M56.4526 48.1981V62.4396C58.768 63.6266 61.5067 64.5165 64.668 65.11C67.8294 65.7035 71.1613 66 74.6644 66C78.0778 66 81.3211 65.6736 84.3933 65.0208C87.4655 64.368 90.1598 63.2925 92.4747 61.7946C94.7902 60.2962 96.6232 58.3378 97.9742 55.9195C99.3247 53.5018 100 50.5127 100 46.9523C100 44.3711 99.6139 42.1085 98.8423 40.1651C98.0791 38.2349 96.9444 36.4734 95.5026 34.9805C94.0484 33.4672 92.3041 32.11 90.2711 30.9081C88.2376 29.7067 85.9443 28.5718 83.3912 27.504C81.5211 26.7321 79.8443 25.9834 78.3598 25.2563C76.8758 24.5293 75.6139 23.7878 74.5753 23.0309C73.5361 22.2745 72.7345 21.4732 72.1706 20.6276C71.6067 19.782 71.3247 18.8255 71.3247 17.7571C71.3247 16.7779 71.5768 15.8957 72.0814 15.1094C72.5861 14.323 73.299 13.6481 74.2191 13.0845C75.1392 12.5204 76.267 12.0832 77.6031 11.7712C78.9387 11.4598 80.4232 11.304 82.0557 11.304C83.2433 11.304 84.4974 11.3932 85.818 11.5711C87.1392 11.749 88.4675 12.0233 89.8036 12.3946C91.1354 12.7639 92.4377 13.2326 93.6995 13.7966C94.923 14.3389 96.0932 14.9944 97.1948 15.7544V2.44767C95.0278 1.617 92.6603 1.00134 90.0928 0.600704C87.5253 0.200063 84.5789 0 81.2541 0C77.8701 0 74.6644 0.363515 71.6366 1.09055C68.6088 1.81706 65.9443 2.95195 63.6438 4.4947C61.3433 6.03797 59.5253 8.00353 58.1892 10.3919C56.8536 12.7803 56.1856 15.6358 56.1856 18.959C56.1856 23.2016 57.4098 26.8213 59.8593 29.8181C62.3082 32.8144 66.0258 35.3512 71.0129 37.4282C72.8539 38.1782 74.6799 38.9647 76.4897 39.7872C78.182 40.5585 79.6438 41.3593 80.8758 42.19C82.1077 43.0207 83.0799 43.9256 83.7923 44.9047C84.5046 45.8839 84.8608 46.9966 84.8608 48.2429C84.8667 49.1398 84.6363 50.0224 84.1928 50.8019C83.7479 51.5878 83.0722 52.2705 82.167 52.849C81.2619 53.4275 80.1335 53.8797 78.783 54.2061C77.4325 54.5325 75.8515 54.696 74.0407 54.696C70.9536 54.696 67.8964 54.1545 64.8686 53.0712C61.8402 51.9884 59.0351 50.3642 56.4526 48.1981ZM32.7227 12.7576H51.0309V1.03125H0V12.7576H18.2191V64.9688H32.7227V12.7576Z" fill="white"/>
</svg>
